# xmcd
#
# Track frame offsets:
# 150
# 16234
# 31432
# 43345
# 58835
# 71330
# 86025
# 104777
# 117490
# 132527
# 142845
# 157607
# 171225
# 188190
#
# Disc length: 2690 seconds
#
#
# Revision: 0
# Processed by: cddbd v1.5.1PL0 Copyright (c) Steve Scherf et al.
# Submitted via: FreeRIP 2.70 
#
DISCID=c70a800e
DTITLE=Sérgio - Reis - A Volta da Asa Branca
DYEAR=2000
DGENRE=National Folk
TTITLE0=A volta da Asa Branca
TTITLE1=Último Pau de Arara
TTITLE2=Procissão
TTITLE3=Súplica Cearense
TTITLE4=Vendi os bois
TTITLE5=Assum Preto
TTITLE6=Disparada
TTITLE7=Leva eu sodade
TTITLE8=Baião da garoa
TTITLE9=Uirapuru
TTITLE10=Leva eu mainha
TTITLE11=Boiadeiro
TTITLE12=Estrada de Canindé
TTITLE13=De papo pro ar
EXTD=
EXTT0=
EXTT1=
EXTT2=
EXTT3=
EXTT4=
EXTT5=
EXTT6=
EXTT7=
EXTT8=
EXTT9=
EXTT10=
EXTT11=
EXTT12=
EXTT13=
PLAYORDER=
